# xmcd
#
# Track frame offsets:
#	150
#	17416
#	37242
#	53740
#	69519
#	91643
#	113701
#	132131
#	147850
#	162444
#	182501
#	199169
#
# Disc length: 2863 seconds
#
# Revision: 1
# Processed by: cddbd v1.5.2PL0 Copyright (c) Steve Scherf et al.
# Submitted via: audiograbber 1.83.01
#
DISCID=9b0b2d0c
DTITLE=Crab Shack - Thats Why We Love Country
DYEAR=2007
DGENRE=Country
TTITLE0=Thats Why We Love Country
TTITLE1=Move On
TTITLE2=Sometimes
TTITLE3=Jealousy
TTITLE4=Salt and Pepper
TTITLE5=Letter To Marcel
TTITLE6=Wild Womens Rock&Roll
TTITLE7=The Country Palace Western Swing
TTITLE8=The Right One For Me
TTITLE9=This Old House
TTITLE10=Teutonic Mountain Cow
TTITLE11=Life Goes On
EXTD=
EXTT0=
EXTT1=
EXTT2=
EXTT3=
EXTT4=
EXTT5=
EXTT6=
EXTT7=
EXTT8=
EXTT9=
EXTT10=
EXTT11=
PLAYORDER=
